<?xml version="1.0" standalone="no"?>
<!DOCTYPE svg PUBLIC "-//W3C//DTD SVG 20010904//EN"
 "http://www.w3.org/TR/2001/REC-SVG-20010904/DTD/svg10.dtd">
<svg version="1.0" xmlns="http://www.w3.org/2000/svg"
 width="425.000000pt" height="432.000000pt" viewBox="0 0 425.000000 432.000000"
 preserveAspectRatio="xMidYMid meet">
<metadata>
Created by potrace 1.12, written by Peter Selinger 2001-2015
</metadata>
<g transform="translate(0.000000,432.000000) scale(0.100000,-0.100000)"
fill="#000000" stroke="none">
<path d="M2255 4310 l-30 -8 30 -1 c17 0 37 4 45 9 13 9 13 10 0 9 -8 -1 -28
-5 -45 -9z"/>
<path d="M2195 4272 c-55 -4 -70 -22 -19 -22 35 0 76 14 64 22 -3 2 -23 2 -45
0z"/>
<path d="M2220 4230 c0 -5 -19 -10 -42 -10 -24 0 -56 -7 -72 -15 -15 -8 -35
-15 -42 -15 -8 0 -14 -4 -14 -10 0 -5 -7 -10 -15 -10 -8 0 -15 -4 -15 -9 0 -6
17 -7 38 -5 53 8 64 12 57 24 -3 5 1 10 9 10 9 0 15 -6 14 -12 -2 -8 5 -12 17
-10 11 1 74 3 140 3 108 1 117 2 90 14 -17 7 -24 14 -17 14 20 2 14 17 -13 29
-32 15 -135 16 -135 2z"/>
<path d="M1901 4150 c-14 -3 -26 -11 -29 -18 -3 -10 5 -12 34 -7 56 9 66 14
59 24 -6 10 -25 11 -64 1z"/>
<path d="M1775 4120 c-47 -10 -119 -39 -112 -46 2 -2 17 0 33 7 16 6 61 19 99
29 70 19 56 25 -20 10z"/>
<path d="M2190 4124 c-19 -2 -66 -9 -105 -16 -61 -10 -66 -13 -40 -19 17 -4
39 -7 50 -8 16 -1 17 1 5 9 -13 9 -13 10 0 10 8 0 26 3 39 7 17 4 22 3 17 -5
-10 -17 103 -16 144 2 53 22 7 30 -110 20z"/>
<path d="M1900 4065 c0 -17 19 -19 40 -4 13 9 12 10 -2 5 -10 -3 -18 -1 -18 4
0 6 -4 10 -10 10 -5 0 -10 -7 -10 -15z"/>
<path d="M1620 4060 c-8 -5 -10 -10 -5 -10 6 0 17 5 25 10 8 5 11 10 5 10 -5
0 -17 -5 -25 -10z"/>
<path d="M1985 4045 c-82 -15 -244 -68 -180 -59 22 3 65 15 96 25 31 11 101
26 155 33 70 10 85 14 49 14 -27 0 -81 -6 -120 -13z"/>
<path d="M1545 4030 c-16 -7 -17 -9 -3 -9 9 -1 20 4 23 9 7 11 7 11 -20 0z"/>
<path d="M2020 4000 c-16 -5 -2 -6 35 -3 33 3 62 7 64 9 8 7 -74 2 -99 -6z"/>
<path d="M2010 3961 c-30 -3 -61 -10 -68 -15 -8 -4 -34 -9 -58 -11 -47 -3 -59
-9 -59 -28 0 -7 -14 -17 -32 -22 -43 -14 -56 -29 -18 -22 36 7 -44 -31 -155
-75 -177 -69 -290 -117 -346 -149 -28 -16 -58 -29 -65 -29 -8 0 -64 -42 -124
-94 -60 -51 -115 -92 -121 -89 -6 2 -22 -10 -35 -27 -13 -17 -42 -53 -64 -80
-22 -26 -48 -60 -58 -74 -10 -14 -25 -26 -33 -26 -8 0 -13 -4 -9 -9 3 -5 1
-12 -5 -16 -12 -7 -13 -25 -2 -25 5 0 14 10 19 23 13 27 144 170 150 163 8 -7
-42 -79 -86 -123 -22 -23 -41 -46 -41 -52 0 -5 -6 -14 -13 -18 -7 -4 -18 -19
-25 -33 -6 -14 -16 -32 -21 -40 -5 -8 -14 -26 -20 -40 -6 -14 -15 -32 -20 -40
-34 -58 -100 -201 -105 -230 -10 -49 -27 -90 -37 -90 -11 0 -3 39 17 88 7 18
11 39 8 47 -9 22 24 110 62 165 19 27 34 53 34 57 0 5 16 30 35 57 38 53 37
88 -2 40 -24 -30 -88 -137 -143 -239 -33 -62 -48 -83 -37 -52 4 9 5 17 3 17
-9 0 -50 -80 -67 -130 l-18 -55 6 50 c3 28 14 70 24 94 10 24 19 55 18 70 0
22 -4 19 -24 -22 -28 -60 -38 -70 -31 -32 12 61 -32 -46 -75 -180 -47 -150
-64 -179 -54 -90 7 63 49 196 114 363 30 78 36 102 25 102 -8 0 -19 -12 -24
-26 -6 -14 -14 -23 -19 -19 -12 7 -25 -32 -22 -68 1 -17 -3 -26 -9 -22 -12 7
-30 -34 -23 -52 3 -7 0 -13 -5 -13 -14 0 -8 31 23 116 35 95 31 123 -7 44 -30
-65 -30 -65 -39 -35 -7 23 -4 41 15 80 13 28 26 70 30 95 l6 45 -29 -55 c-16
-30 -40 -81 -52 -112 -22 -59 -39 -75 -39 -37 0 11 5 17 10 14 6 -3 10 1 10
10 0 8 5 25 12 38 21 41 25 53 33 86 13 61 -10 25 -52 -81 -79 -198 -94 -239
-88 -248 9 -14 -15 -81 -26 -75 -5 4 -6 -2 -2 -11 4 -12 3 -15 -5 -10 -7 4
-12 4 -12 -1 0 -27 -33 -161 -44 -178 -35 -54 -58 -544 -32 -685 3 -14 14 -56
26 -95 11 -38 34 -117 50 -175 15 -58 32 -114 35 -125 l7 -20 -14 20 c-8 11
-21 41 -28 68 -7 26 -16 47 -21 47 -14 0 -64 189 -75 280 -8 72 -22 219 -29
300 -13 140 -17 85 -12 -130 6 -204 17 -307 35 -319 8 -5 32 -66 32 -79 0 -3
-7 3 -15 14 -21 27 -19 16 14 -83 123 -374 310 -642 655 -938 68 -58 100 -90
139 -139 16 -20 39 -41 52 -48 27 -15 140 -91 240 -162 39 -27 101 -60 139
-74 60 -20 81 -23 158 -18 51 3 99 11 111 19 32 20 77 27 77 12 0 -17 121 20
133 40 4 8 13 15 20 15 19 0 66 48 73 75 3 14 10 25 15 25 19 0 67 93 74 139
8 61 -3 141 -19 136 -6 -3 -22 19 -36 48 -41 87 -209 241 -241 222 -5 -4 -21
0 -34 9 -28 18 -39 20 -30 6 10 -17 -11 -11 -56 15 -50 28 -67 32 -49 10 18
-22 4 -31 -23 -16 -13 7 -39 12 -57 13 -20 0 -51 11 -73 26 -20 14 -40 22 -44
19 -3 -4 -18 2 -33 13 -48 34 -47 21 0 -20 53 -47 32 -42 -65 14 -80 47 -130
67 -150 60 -7 -3 -18 7 -26 25 -8 17 -19 29 -26 27 -14 -6 -84 62 -112 107
-11 18 -33 60 -51 94 -33 68 -45 80 -34 36 7 -25 6 -27 -9 -15 -9 8 -23 33
-33 57 -9 24 -22 46 -30 49 -8 3 -14 14 -14 24 0 11 -6 35 -14 53 -7 19 -17
50 -20 69 -7 35 -7 35 8 10 9 -14 15 -33 16 -42 0 -10 6 -18 13 -18 11 0 27
-19 51 -65 34 -63 146 -191 146 -167 0 6 -10 19 -23 29 -12 10 -31 31 -42 47
-57 82 -69 110 -38 85 15 -12 16 -12 8 1 -4 8 -15 23 -23 33 -11 12 -12 21 -5
28 8 8 16 3 30 -17 85 -132 176 -229 225 -239 18 -4 59 -21 91 -37 52 -26 56
-27 45 -8 -7 12 -35 35 -63 53 -27 17 -77 59 -110 92 -64 65 -132 155 -117
155 5 0 14 -11 20 -25 6 -14 18 -25 27 -25 8 0 15 -5 15 -11 0 -6 9 -8 20 -4
11 3 20 2 20 -3 0 -6 7 -13 15 -16 14 -5 13 -1 -2 24 -9 17 -24 30 -31 30 -9
0 -12 6 -8 16 4 10 -9 33 -38 65 -76 84 -156 270 -171 394 -10 85 -14 161 -8
140 3 -11 9 -25 14 -31 5 -7 11 -31 14 -54 6 -66 37 -157 45 -134 4 10 -1 37
-11 60 -13 29 -21 77 -25 160 -3 66 -8 126 -11 134 -6 17 -4 76 3 102 4 14 1
16 -12 11 -13 -5 -15 -2 -9 15 3 12 2 22 -3 22 -5 0 -13 -10 -17 -22 -4 -14
-8 -18 -12 -10 -2 6 -9 10 -14 6 -11 -6 -11 24 1 51 7 17 9 16 9 -9 1 -50 14
-19 18 42 2 40 0 53 -7 42 -8 -13 -10 -13 -10 1 0 9 6 19 13 22 8 3 21 45 32
101 10 53 22 99 28 103 6 4 7 1 2 -7 -5 -8 -4 -11 2 -7 6 4 13 21 17 39 5 24
9 29 15 19 7 -11 10 -9 16 9 4 12 8 33 10 46 1 13 11 36 21 51 15 23 19 25 22
11 5 -26 21 -22 35 10 7 15 28 52 48 82 19 30 39 67 42 83 4 15 12 27 17 27 6
0 10 9 10 19 0 22 19 40 21 19 1 -7 4 -2 8 12 4 15 14 24 24 24 10 -1 17 5 17
16 0 25 38 70 60 70 11 0 22 11 28 30 6 16 26 42 44 59 18 16 30 33 26 37 -11
10 -68 -16 -68 -32 0 -16 -17 -27 -24 -16 -3 5 9 24 26 42 31 34 63 98 54 107
-2 2 -10 -8 -18 -23 -15 -32 -42 -47 -31 -17 18 48 -220 -193 -244 -247 -14
-33 -80 -128 -124 -180 -42 -51 -9 10 46 83 60 81 72 106 25 55 -16 -18 -30
-30 -30 -26 0 10 138 167 279 316 124 131 141 144 291 224 36 20 92 50 125 68
33 18 74 36 90 41 17 4 50 15 74 24 61 22 76 12 20 -13 -26 -11 -50 -25 -53
-31 -9 -14 -5 -14 31 -1 l28 10 -25 -20 c-30 -24 -23 -25 29 -4 22 9 48 14 58
12 20 -4 -63 -40 -135 -58 -24 -6 -52 -20 -63 -31 -10 -10 -24 -19 -29 -19
-15 0 -121 -72 -115 -78 2 -3 24 8 47 24 24 16 54 32 68 36 14 3 51 16 84 28
32 11 61 18 65 14 3 -4 0 -9 -7 -11 -6 -3 -10 -9 -6 -14 3 -5 0 -9 -5 -9 -6 0
-11 -8 -11 -18 0 -14 8 -19 30 -19 17 0 30 4 30 8 0 5 7 6 15 2 9 -3 24 2 35
12 10 9 23 14 28 11 9 -5 52 6 97 26 28 11 156 17 149 7 -3 -5 -14 -9 -24 -9
-70 0 -228 -56 -325 -116 -22 -13 -62 -35 -90 -49 -66 -33 -155 -83 -170 -95
-22 -18 -24 2 -2 22 30 25 -150 -88 -188 -119 -73 -60 -183 -175 -247 -260
-67 -90 -138 -223 -138 -260 0 -10 -7 -28 -15 -40 -11 -16 -34 -120 -35 -165
0 -4 -7 -14 -16 -23 -13 -13 -14 -21 -6 -38 10 -21 11 -21 11 -1 1 11 6 25 12
31 5 5 17 39 25 74 8 35 20 70 27 79 20 25 37 59 37 73 0 7 9 30 20 52 11 22
20 47 20 57 0 24 32 88 41 83 4 -3 15 15 25 40 17 46 34 59 34 28 1 -11 9 -3
20 19 11 20 43 58 72 85 28 26 68 64 87 84 20 20 44 39 54 42 9 4 20 13 22 22
16 51 16 50 25 35 8 -12 14 -11 39 8 17 12 34 22 40 22 5 0 12 7 15 16 4 9 9
14 13 11 3 -4 49 16 101 44 53 27 126 62 162 76 36 14 79 31 95 38 61 26 103
37 215 55 133 22 282 20 428 -5 133 -22 315 -92 397 -152 109 -79 110 -79 101
-65 -7 11 -4 12 13 2 31 -16 163 -152 197 -203 16 -23 34 -46 40 -52 21 -19
54 -73 54 -88 0 -9 13 -37 30 -64 42 -69 96 -222 160 -453 32 -117 37 -492 9
-635 -52 -266 -154 -487 -314 -681 -65 -79 -285 -294 -301 -294 -5 -1 -25 -15
-44 -32 l-35 -30 48 27 c26 15 47 22 47 16 0 -6 -8 -15 -19 -20 -10 -6 -29
-19 -42 -30 -96 -80 -127 -101 -254 -175 -82 -48 -70 -53 20 -9 l50 25 -40
-37 c-22 -21 -33 -34 -25 -29 28 15 85 58 100 76 15 17 111 58 138 58 8 0 34
16 58 36 24 20 44 32 44 27 0 -15 -37 -45 -135 -109 -49 -32 -94 -64 -100 -70
-5 -6 -22 -14 -37 -18 -16 -4 -28 -13 -28 -21 0 -7 -9 -16 -19 -20 -11 -3 -25
-12 -32 -21 -15 -18 113 42 179 85 27 17 54 31 61 31 7 0 30 12 50 27 43 33
63 46 116 74 22 12 69 44 105 71 l65 50 -50 -46 c-27 -26 -88 -72 -134 -104
-46 -31 -94 -66 -105 -78 -22 -22 -134 -94 -198 -127 -21 -10 -38 -21 -38 -24
0 -5 35 2 66 14 11 4 15 3 11 -4 -9 -14 104 27 193 70 36 17 96 55 133 85 62
49 90 62 72 32 -19 -30 -346 -250 -373 -250 -6 0 -28 -15 -50 -32 -22 -18 -48
-38 -58 -45 -17 -10 -17 -11 6 -7 33 7 -63 -45 -115 -62 -31 -10 -35 -13 -15
-13 27 -1 148 43 248 90 65 30 82 35 82 21 0 -4 -17 -14 -37 -22 -42 -15 -134
-70 -118 -70 6 0 19 6 30 14 11 7 52 25 90 40 39 16 90 40 115 54 25 14 70 39
100 54 30 16 59 33 64 38 13 13 26 13 26 0 0 -15 -145 -107 -268 -170 -35 -18
-61 -34 -59 -37 7 -7 196 89 272 138 39 25 78 48 88 52 9 3 17 11 17 17 0 5 5
10 11 10 6 0 49 30 95 68 47 37 90 68 97 70 12 3 -14 -21 -62 -59 -13 -11 -22
-22 -18 -25 8 -8 67 25 74 42 3 7 11 14 19 14 8 0 14 7 14 15 0 8 9 19 20 25
11 6 20 8 20 5 0 -3 17 11 39 32 21 21 59 56 85 78 26 22 57 58 71 80 13 22
38 56 55 75 l31 35 -17 -35 c-34 -71 -247 -296 -377 -398 -70 -55 -68 -69 3
-17 68 50 64 30 -6 -25 -31 -25 -65 -54 -77 -66 -27 -26 -156 -109 -194 -126
-15 -7 -41 -22 -58 -34 -16 -12 -72 -43 -123 -69 -51 -26 -91 -49 -88 -52 8
-9 77 18 181 70 55 27 109 51 120 52 35 4 36 5 31 14 -8 12 60 54 74 46 5 -3
19 -1 30 5 11 6 20 7 20 2 0 -22 -295 -174 -372 -191 -24 -6 -71 -21 -106 -35
-34 -14 -87 -30 -117 -36 -30 -6 -57 -16 -61 -21 -3 -6 4 -8 18 -5 12 3 78 17
145 32 68 14 140 35 160 45 20 10 47 19 59 19 12 0 24 5 26 11 2 6 16 12 31
12 15 0 27 5 27 12 0 11 70 38 131 50 15 3 29 13 32 24 3 13 19 24 46 31 23 6
45 19 48 28 7 21 43 51 62 52 21 0 111 70 111 86 0 17 38 34 58 26 8 -2 16 4
19 17 3 11 8 21 12 21 4 0 36 27 71 60 36 33 56 57 45 54 l-20 -7 20 24 c11
13 41 46 67 74 54 58 108 125 108 134 0 3 14 22 30 41 16 19 30 40 30 45 0 6
15 33 33 60 48 71 66 112 60 134 -3 11 3 26 15 37 21 20 56 92 98 203 28 75
25 92 -5 29 -12 -23 -18 -34 -15 -23 8 25 38 140 57 220 8 33 24 96 35 140 44
169 47 242 23 539 -10 126 -59 413 -81 476 -5 14 -25 72 -45 130 -58 166 -164
372 -255 499 -21 30 -36 59 -33 65 3 6 3 8 -1 4 -4 -3 -33 23 -64 60 -31 36
-70 79 -88 94 -18 16 -35 40 -38 54 -5 20 -10 23 -20 15 -10 -8 -17 -6 -30 7
-9 10 -14 21 -11 24 3 3 -6 3 -21 0 -19 -3 -25 -1 -20 6 4 7 2 10 -7 6 -16 -6
-39 18 -35 36 2 7 -3 15 -11 18 -8 3 -11 0 -7 -7 12 -19 -2 -13 -55 24 -47 32
-69 42 -69 31 0 -3 27 -21 60 -41 33 -20 60 -41 60 -46 0 -5 7 -9 15 -9 8 0
15 -2 15 -4 0 -2 3 -12 7 -22 6 -15 1 -14 -28 6 -19 13 -46 35 -61 48 -15 14
-30 23 -34 20 -3 -3 15 -21 40 -39 25 -18 46 -36 46 -40 0 -11 -32 0 -45 15
-14 15 -54 37 -74 41 -9 2 -32 12 -51 24 -66 39 -132 71 -145 71 -8 0 -20 6
-27 13 -19 19 -60 41 -80 42 -27 2 -22 -3 18 -20 19 -8 33 -18 30 -23 -4 -7
113 -82 129 -82 15 0 125 -82 125 -93 0 -7 16 -22 36 -35 19 -12 32 -27 29
-31 -2 -5 3 -15 13 -22 15 -13 16 -12 3 4 -7 9 -9 17 -3 17 13 0 33 -25 26
-33 -4 -3 7 -18 24 -32 32 -27 142 -168 142 -182 0 -4 14 -28 31 -53 33 -49
72 -120 66 -120 -3 0 -21 27 -42 60 -20 32 -40 58 -44 57 -3 -1 -55 48 -116
109 -111 111 -243 215 -347 273 -31 18 -62 39 -68 46 -7 8 -16 15 -20 15 -5 0
-55 22 -112 49 -163 76 -207 91 -423 142 -176 42 -353 56 -495 40z m455 -116
c39 -9 89 -20 113 -26 23 -5 89 -30 145 -55 60 -27 110 -43 122 -40 47 12 220
-94 350 -216 67 -62 72 -82 10 -36 -53 38 -152 101 -210 133 -22 12 -67 39
-100 61 -74 48 -283 113 -365 114 -40 0 -71 8 -115 30 -37 19 -76 30 -101 30
-23 0 -63 3 -90 7 l-49 8 45 5 c72 8 169 2 245 -15z m-815 -75 c0 -5 -18 -14
-40 -20 -21 -6 -42 -15 -45 -20 -7 -12 -69 -44 -105 -55 -43 -13 48 46 120 76
76 33 70 32 70 19z m-680 -360 c0 -5 -7 -10 -16 -10 -8 0 -12 5 -9 10 3 6 10
10 16 10 5 0 9 -4 9 -10z m2385 -40 c27 -30 12 -34 -15 -5 -13 14 -19 25 -13
25 5 0 18 -9 28 -20z m-217 -62 c53 -52 72 -78 59 -78 -1 0 -34 32 -72 70 -38
39 -65 70 -59 70 5 0 38 -28 72 -62z m-1718 -3 c-7 -9 -15 -13 -18 -10 -3 2 1
11 8 20 7 9 15 13 18 10 3 -2 -1 -11 -8 -20z m1860 -150 c0 -5 -9 1 -20 15
-11 14 -20 30 -20 35 0 6 9 -1 20 -15 11 -14 20 -29 20 -35z m420 -30 c0 -5
-5 -3 -10 5 -5 8 -10 20 -10 25 0 6 5 3 10 -5 5 -8 10 -19 10 -25z m-2715
-116 c-13 -24 -25 -39 -25 -32 0 15 41 85 46 80 3 -2 -7 -24 -21 -48z m-170
-16 c-45 -83 -77 -134 -81 -130 -8 8 89 177 101 177 3 0 -6 -21 -20 -47z m7
-55 c-7 -7 -12 -8 -12 -2 0 14 12 26 19 19 2 -3 -1 -11 -7 -17z m-376 -294
c-4 -14 -9 -24 -12 -21 -3 2 -2 17 2 31 3 15 9 25 11 22 3 -3 2 -17 -1 -32z
m-26 -75 c-10 -34 -20 -50 -20 -31 0 14 18 62 24 62 3 0 1 -14 -4 -31z m19
-732 c0 -38 -3 -47 -9 -32 -12 29 -12 98 0 90 6 -3 10 -30 9 -58z m331 -48 c0
-6 -4 -7 -10 -4 -5 3 -10 11 -10 16 0 6 5 7 10 4 6 -3 10 -11 10 -16z m45 -86
c9 -20 14 -41 11 -47 -2 -6 -7 -2 -11 9 -3 11 -11 28 -16 37 -5 10 -9 22 -9
28 0 20 10 9 25 -27z m-677 -268 c-3 -3 -9 2 -12 12 -6 14 -5 15 5 6 7 -7 10
-15 7 -18z m38 -92 c-3 -4 -13 10 -21 30 -21 51 -18 59 6 14 11 -22 18 -41 15
-44z m3128 -353 c-20 -28 -39 -49 -41 -46 -5 5 65 96 73 96 2 0 -12 -23 -32
-50z m-276 -127 c-43 -42 -79 -75 -82 -72 -8 7 130 149 145 149 7 0 -21 -35
-63 -77z m202 47 c-19 -27 -49 -50 -64 -50 -5 0 76 79 82 80 2 0 -6 -14 -18
-30z m-85 -209 c-3 -6 -11 -11 -17 -11 -6 0 -6 6 2 15 14 17 26 13 15 -4z
m-1585 -505 c0 -2 -7 -6 -15 -10 -8 -3 -15 -1 -15 4 0 6 7 10 15 10 8 0 15 -2
15 -4z"/>
<path d="M1280 3911 c0 -10 -27 -21 -44 -20 -5 0 -12 -3 -15 -8 -8 -12 -134
-93 -185 -118 -22 -11 -46 -32 -55 -48 -9 -15 -24 -30 -33 -33 -10 -3 -39 -28
-65 -57 -27 -28 -64 -65 -83 -82 -57 -50 -101 -98 -117 -130 -12 -22 -2 -15
36 25 30 32 45 43 35 26 -10 -15 51 40 135 124 126 125 263 240 284 240 3 0
38 20 78 45 50 31 66 45 51 45 -12 0 -22 -4 -22 -9z"/>
<path d="M1725 3890 c-3 -5 -1 -10 4 -10 6 0 11 5 11 10 0 6 -2 10 -4 10 -3 0
-8 -4 -11 -10z"/>
<path d="M3220 3826 c0 -3 9 -10 20 -16 11 -6 20 -8 20 -6 0 3 -9 10 -20 16
-11 6 -20 8 -20 6z"/>
<path d="M3270 3820 c20 -13 33 -13 25 0 -3 6 -14 10 -23 10 -15 0 -15 -2 -2
-10z"/>
<path d="M3300 3766 c0 -2 7 -7 16 -10 8 -3 12 -2 9 4 -6 10 -25 14 -25 6z"/>
<path d="M780 3677 c-19 -18 -40 -42 -47 -53 -11 -17 -12 -17 -12 -1 -2 33
-28 14 -59 -40 -10 -20 -10 -23 4 -23 10 0 14 -6 11 -14 -11 -28 6 -24 38 9
18 18 36 47 40 64 4 17 17 39 29 48 20 17 41 43 34 43 -2 0 -19 -15 -38 -33z"/>
<path d="M1112 3670 c-18 -11 -30 -25 -27 -30 4 -6 19 1 36 17 42 40 40 43 -9
13z"/>
<path d="M1031 3604 c-19 -18 -32 -37 -28 -40 4 -4 9 1 13 10 3 9 11 16 18 16
11 0 41 39 34 45 -2 2 -18 -12 -37 -31z"/>
<path d="M1135 3590 c-3 -6 1 -7 9 -4 18 7 21 14 7 14 -6 0 -13 -4 -16 -10z"/>
<path d="M1685 3560 c-3 -6 1 -7 9 -4 18 7 21 14 7 14 -6 0 -13 -4 -16 -10z"/>
<path d="M1320 3510 c-12 -23 2 -27 19 -6 8 9 8 16 2 20 -6 4 -15 -3 -21 -14z"/>
<path d="M1577 3503 c-13 -13 -17 -14 -17 -3 0 7 -3 10 -7 6 -7 -7 -14 -36 -8
-36 7 0 75 42 75 46 0 11 -28 2 -43 -13z"/>
<path d="M1019 3483 c-13 -16 -12 -17 4 -4 9 7 17 15 17 17 0 8 -8 3 -21 -13z"/>
<path d="M857 3446 c-43 -46 -68 -79 -63 -83 2 -3 16 8 29 24 48 54 67 76 67
80 0 9 -13 1 -33 -21z"/>
<path d="M965 3450 c-3 -5 -1 -10 4 -10 6 0 11 5 11 10 0 6 -2 10 -4 10 -3 0
-8 -4 -11 -10z"/>
<path d="M1477 3453 c-12 -12 -7 -22 8 -17 8 4 15 10 15 15 0 11 -14 12 -23 2z"/>
<path d="M3512 3380 c7 -11 17 -20 22 -20 5 0 1 9 -9 20 -10 11 -20 20 -22 20
-2 0 2 -9 9 -20z"/>
<path d="M1360 3375 c-8 -9 -8 -15 -2 -15 12 0 26 19 19 26 -2 2 -10 -2 -17
-11z"/>
<path d="M623 3318 c-24 -27 -63 -89 -63 -102 0 -5 9 3 20 17 11 14 20 30 20
35 0 5 7 15 16 22 15 13 38 50 31 50 -2 0 -13 -10 -24 -22z"/>
<path d="M3576 3307 c3 -10 9 -15 12 -12 3 3 0 11 -7 18 -10 9 -11 8 -5 -6z"/>
<path d="M635 3179 c-11 -17 1 -21 15 -4 8 9 8 15 2 15 -6 0 -14 -5 -17 -11z"/>
<path d="M552 3088 c-16 -20 -105 -199 -101 -203 2 -2 29 46 60 106 56 106 62
122 41 97z"/>
<path d="M585 2985 c-15 -25 -25 -50 -23 -55 2 -6 16 14 31 44 32 67 28 73 -8
11z"/>
<path d="M3272 2825 c12 -25 24 -43 26 -41 7 8 -22 75 -35 80 -8 3 -4 -11 9
-39z"/>
<path d="M592 2840 c0 -14 2 -19 5 -12 2 6 2 18 0 25 -3 6 -5 1 -5 -13z"/>
<path d="M166 2773 c-6 -14 -5 -15 5 -6 7 7 10 15 7 18 -3 3 -9 -2 -12 -12z"/>
<path d="M3304 2755 c13 -51 70 -197 73 -188 4 11 -51 165 -68 192 -9 14 -10
13 -5 -4z"/>
<path d="M4156 2713 c9 -38 14 -42 14 -10 0 14 -5 29 -10 32 -7 4 -8 -3 -4
-22z"/>
<path d="M786 2661 c-4 -7 -5 -15 -2 -18 9 -9 19 4 14 18 -4 11 -6 11 -12 0z"/>
<path d="M4171 2653 c0 -4 4 -17 9 -28 8 -19 9 -19 9 2 1 12 -3 25 -9 28 -5 3
-10 3 -9 -2z"/>
<path d="M4181 2583 c0 -4 4 -17 9 -28 8 -19 9 -19 9 2 1 12 -3 25 -9 28 -5 3
-10 3 -9 -2z"/>
<path d="M3381 2535 c0 -5 8 -62 19 -125 39 -219 37 -501 -5 -655 -7 -27 -16
-67 -20 -89 -17 -101 -167 -378 -269 -497 -55 -64 -66 -79 -57 -79 5 0 14 6
21 14 6 8 17 13 23 10 7 -2 32 26 55 63 24 38 56 86 73 108 16 22 35 51 42 65
98 180 107 205 167 485 6 28 12 77 13 110 1 33 5 65 8 70 7 14 4 105 -5 135
-6 20 -5 22 4 10 9 -13 11 -12 6 5 -2 11 -10 47 -16 80 -6 33 -14 69 -17 79
-4 14 -1 18 11 13 12 -5 16 0 16 18 0 14 -6 25 -13 25 -9 0 -21 30 -34 83 -12
45 -21 78 -22 72z"/>
<path d="M44 2438 c-1 -37 0 -40 9 -20 6 14 7 30 1 43 -8 16 -9 12 -10 -23z"/>
<path d="M3472 2395 c0 -16 2 -22 5 -12 2 9 2 23 0 30 -3 6 -5 -1 -5 -18z"/>
<path d="M3479 2344 c-2 -17 2 -91 6 -110 2 -10 4 -41 4 -67 1 -30 5 -46 11
-42 6 3 8 23 5 43 -3 20 -7 68 -9 105 -2 38 -7 71 -10 74 -3 4 -6 2 -7 -3z"/>
<path d="M3492 1990 c0 -19 2 -27 5 -17 2 9 2 25 0 35 -3 9 -5 1 -5 -18z"/>
<path d="M781 1890 c0 -8 4 -22 9 -30 12 -18 12 -2 0 25 -6 13 -9 15 -9 5z"/>
<path d="M4221 1804 c0 -11 3 -14 6 -6 3 7 2 16 -1 19 -3 4 -6 -2 -5 -13z"/>
<path d="M940 1592 c0 -16 52 -92 63 -92 6 0 3 8 -6 18 -10 10 -17 22 -17 26
0 4 -9 19 -20 33 -11 14 -20 21 -20 15z"/>
<path d="M720 1467 c0 -14 4 -28 9 -32 5 -3 8 6 7 20 -4 35 -16 44 -16 12z"/>
<path d="M1050 1421 c0 -5 5 -13 10 -16 6 -3 10 -2 10 4 0 5 -4 13 -10 16 -5
3 -10 2 -10 -4z"/>
<path d="M1030 1401 c0 -5 5 -13 10 -16 6 -3 10 -2 10 4 0 5 -4 13 -10 16 -5
3 -10 2 -10 -4z"/>
<path d="M1060 1374 c0 -12 60 -68 66 -62 2 3 -12 20 -31 38 -19 19 -35 29
-35 24z"/>
<path d="M1024 1161 c20 -22 26 -25 26 -13 0 4 -10 13 -22 21 -23 14 -23 14
-4 -8z"/>
<path d="M1165 1140 c27 -12 43 -12 25 0 -8 5 -22 9 -30 9 -10 0 -8 -3 5 -9z"/>
<path d="M1010 1120 c0 -5 5 -10 11 -10 5 0 7 5 4 10 -3 6 -8 10 -11 10 -2 0
-4 -4 -4 -10z"/>
<path d="M2991 1028 c-34 -28 -61 -53 -61 -55 0 -4 41 19 62 35 9 8 22 11 29
6 8 -5 10 -3 4 6 -5 8 3 21 21 36 16 13 24 23 17 24 -6 0 -38 -23 -72 -52z"/>
<path d="M2953 966 c-28 -16 -64 -48 -59 -53 5 -6 86 49 86 59 0 9 2 10 -27
-6z"/>
<path d="M2899 953 c-13 -16 -12 -17 4 -4 9 7 17 15 17 17 0 8 -8 3 -21 -13z"/>
<path d="M2775 825 c-16 -13 -25 -24 -20 -25 6 0 24 11 40 25 17 13 26 24 20
25 -5 0 -23 -11 -40 -25z"/>
<path d="M2680 765 c-19 -14 -29 -25 -23 -25 7 0 15 5 18 10 3 6 11 10 17 10
6 0 3 -9 -7 -20 -10 -11 -13 -20 -7 -20 6 0 14 5 17 10 4 6 25 20 48 32 23 12
36 23 29 26 -7 2 -24 -3 -37 -12 -31 -20 -41 -20 -25 -1 17 20 11 18 -30 -10z"/>
<path d="M2635 710 c-3 -5 -2 -10 4 -10 5 0 13 5 16 10 3 6 2 10 -4 10 -5 0
-13 -4 -16 -10z"/>
<path d="M2420 590 c-18 -12 -2 -12 25 0 13 6 15 9 5 9 -8 0 -22 -4 -30 -9z"/>
<path d="M3250 500 c-9 -6 -10 -10 -3 -10 6 0 15 5 18 10 8 12 4 12 -15 0z"/>
<path d="M2403 372 c-10 -8 -35 -21 -56 -29 -21 -9 -36 -17 -34 -19 3 -3 158
53 165 60 10 10 -61 -1 -75 -12z"/>
<path d="M2721 259 c-13 -5 -21 -12 -18 -15 3 -3 18 1 34 10 31 17 21 20 -16
5z"/>
</g>
</svg>
